<mxfile host="app.diagrams.net" agent="Mozilla/5.0 (Windows NT 10.0; Win64; x64) AppleWebKit/537.36 (KHTML, like Gecko) Chrome/135.0.0.0 Safari/537.36 OPR/120.0.0.0" version="28.1.1">
  <diagram name="Page-1" id="j_9_D14YqJsac_UosjVl">
    <mxGraphModel dx="867" dy="1568" grid="1" gridSize="10" guides="1" tooltips="1" connect="1" arrows="1" fold="1" page="1" pageScale="1" pageWidth="850" pageHeight="1100" math="0" shadow="0">
      <root>
        <mxCell id="0" />
        <mxCell id="1" parent="0" />
        <mxCell id="S0j7rak2TVKHOo2t690G-3" style="edgeStyle=orthogonalEdgeStyle;rounded=0;orthogonalLoop=1;jettySize=auto;html=1;" edge="1" parent="1" target="S0j7rak2TVKHOo2t690G-1">
          <mxGeometry relative="1" as="geometry">
            <mxPoint x="420" y="420" as="sourcePoint" />
            <Array as="points">
              <mxPoint x="420" y="420" />
            </Array>
          </mxGeometry>
        </mxCell>
        <mxCell id="S0j7rak2TVKHOo2t690G-5" style="edgeStyle=orthogonalEdgeStyle;rounded=0;orthogonalLoop=1;jettySize=auto;html=1;entryX=0.5;entryY=1;entryDx=0;entryDy=0;" edge="1" parent="1" source="S0j7rak2TVKHOo2t690G-1" target="S0j7rak2TVKHOo2t690G-4">
          <mxGeometry relative="1" as="geometry" />
        </mxCell>
        <mxCell id="S0j7rak2TVKHOo2t690G-1" value="&lt;font&gt;Layer Norm&lt;/font&gt;" style="rounded=0;whiteSpace=wrap;html=1;fontSize=16;fillColor=#f8cecc;strokeColor=#b85450;" vertex="1" parent="1">
          <mxGeometry x="340" y="340" width="160" height="30" as="geometry" />
        </mxCell>
        <mxCell id="S0j7rak2TVKHOo2t690G-11" style="edgeStyle=orthogonalEdgeStyle;rounded=0;orthogonalLoop=1;jettySize=auto;html=1;entryX=0.5;entryY=1;entryDx=0;entryDy=0;" edge="1" parent="1" source="S0j7rak2TVKHOo2t690G-4" target="S0j7rak2TVKHOo2t690G-6">
          <mxGeometry relative="1" as="geometry" />
        </mxCell>
        <mxCell id="S0j7rak2TVKHOo2t690G-4" value="&lt;span&gt;Criss Cross Attention&lt;/span&gt;" style="rounded=0;whiteSpace=wrap;html=1;fontSize=16;fillColor=#d5e8d4;strokeColor=#82b366;" vertex="1" parent="1">
          <mxGeometry x="340" y="280" width="160" height="30" as="geometry" />
        </mxCell>
        <mxCell id="S0j7rak2TVKHOo2t690G-12" style="edgeStyle=orthogonalEdgeStyle;rounded=0;orthogonalLoop=1;jettySize=auto;html=1;entryX=0.5;entryY=1;entryDx=0;entryDy=0;" edge="1" parent="1" source="S0j7rak2TVKHOo2t690G-6" target="S0j7rak2TVKHOo2t690G-7">
          <mxGeometry relative="1" as="geometry" />
        </mxCell>
        <mxCell id="S0j7rak2TVKHOo2t690G-16" style="edgeStyle=orthogonalEdgeStyle;rounded=0;orthogonalLoop=1;jettySize=auto;html=1;exitX=0.5;exitY=0;exitDx=0;exitDy=0;entryX=0;entryY=0.5;entryDx=0;entryDy=0;" edge="1" parent="1" source="S0j7rak2TVKHOo2t690G-6" target="S0j7rak2TVKHOo2t690G-9">
          <mxGeometry relative="1" as="geometry">
            <Array as="points">
              <mxPoint x="420" y="210" />
              <mxPoint x="320" y="210" />
              <mxPoint x="320" y="55" />
            </Array>
          </mxGeometry>
        </mxCell>
        <mxCell id="S0j7rak2TVKHOo2t690G-6" value="&lt;span&gt;Add&lt;/span&gt;" style="rounded=0;whiteSpace=wrap;html=1;fontSize=16;fillColor=#dae8fc;strokeColor=#6c8ebf;" vertex="1" parent="1">
          <mxGeometry x="340" y="220" width="160" height="30" as="geometry" />
        </mxCell>
        <mxCell id="S0j7rak2TVKHOo2t690G-13" style="edgeStyle=orthogonalEdgeStyle;rounded=0;orthogonalLoop=1;jettySize=auto;html=1;entryX=0.5;entryY=1;entryDx=0;entryDy=0;" edge="1" parent="1" source="S0j7rak2TVKHOo2t690G-7" target="S0j7rak2TVKHOo2t690G-8">
          <mxGeometry relative="1" as="geometry" />
        </mxCell>
        <mxCell id="S0j7rak2TVKHOo2t690G-7" value="&lt;font&gt;Layer Norm&lt;/font&gt;" style="rounded=0;whiteSpace=wrap;html=1;fontSize=16;fillColor=#f8cecc;strokeColor=#b85450;" vertex="1" parent="1">
          <mxGeometry x="340" y="160" width="160" height="30" as="geometry" />
        </mxCell>
        <mxCell id="S0j7rak2TVKHOo2t690G-14" style="edgeStyle=orthogonalEdgeStyle;rounded=0;orthogonalLoop=1;jettySize=auto;html=1;entryX=0.5;entryY=1;entryDx=0;entryDy=0;" edge="1" parent="1" source="S0j7rak2TVKHOo2t690G-8" target="S0j7rak2TVKHOo2t690G-9">
          <mxGeometry relative="1" as="geometry" />
        </mxCell>
        <mxCell id="S0j7rak2TVKHOo2t690G-8" value="&lt;span&gt;Feed Forward Layer&lt;/span&gt;" style="rounded=0;whiteSpace=wrap;html=1;fontSize=16;fillColor=#e1d5e7;strokeColor=#9673a6;" vertex="1" parent="1">
          <mxGeometry x="340" y="100" width="160" height="30" as="geometry" />
        </mxCell>
        <mxCell id="S0j7rak2TVKHOo2t690G-10" style="edgeStyle=orthogonalEdgeStyle;rounded=0;orthogonalLoop=1;jettySize=auto;html=1;" edge="1" parent="1" source="S0j7rak2TVKHOo2t690G-9">
          <mxGeometry relative="1" as="geometry">
            <mxPoint x="420" as="targetPoint" />
          </mxGeometry>
        </mxCell>
        <mxCell id="S0j7rak2TVKHOo2t690G-9" value="&lt;span&gt;Add&lt;/span&gt;" style="rounded=0;whiteSpace=wrap;html=1;fontSize=16;fillColor=#dae8fc;strokeColor=#6c8ebf;" vertex="1" parent="1">
          <mxGeometry x="340" y="40" width="160" height="30" as="geometry" />
        </mxCell>
        <mxCell id="S0j7rak2TVKHOo2t690G-15" style="edgeStyle=orthogonalEdgeStyle;rounded=0;orthogonalLoop=1;jettySize=auto;html=1;entryX=0;entryY=0.5;entryDx=0;entryDy=0;" edge="1" parent="1" target="S0j7rak2TVKHOo2t690G-6">
          <mxGeometry relative="1" as="geometry">
            <mxPoint x="450" y="440" as="targetPoint" />
            <mxPoint x="420" y="420" as="sourcePoint" />
            <Array as="points">
              <mxPoint x="420" y="390" />
              <mxPoint x="320" y="390" />
              <mxPoint x="320" y="235" />
            </Array>
          </mxGeometry>
        </mxCell>
      </root>
    </mxGraphModel>
  </diagram>
</mxfile>
